{
    "asset" : {
        "copyright" : "ntvfx",
        "generator" : "Khronos glTF Blender I/O v1.8.19",
        "version" : "2.0"
    },
    "scene" : 0,
    "scenes" : [
        {
            "name" : "Scene",
            "nodes" : [
                2
            ]
        }
    ],
    "nodes" : [
        {
            "mesh" : 0,
            "name" : "cap",
            "rotation" : [
                0.034749019891023636,
                -0.16305936872959137,
                0.0195840522646904,
                0.9858096241950989
            ],
            "scale" : [
                0.4020981192588806,
                0.4020981192588806,
                0.4020981192588806
            ],
            "translation" : [
                -0.02845427580177784,
                4.140706539154053,
                0.03543201833963394
            ]
        },
        {
            "mesh" : 1,
            "name" : "up",
            "rotation" : [
                0,
                -0.9935764670372009,
                0,
                0.11316274106502533
            ],
            "translation" : [
                0,
                4.146174907684326,
                0
            ]
        },
        {
            "children" : [
                0,
                1
            ],
            "mesh" : 2,
            "name" : "body"
        }
    ],
    "materials" : [
        {
            "doubleSided" : true,
            "name" : "up_mat",
            "pbrMetallicRoughness" : {
                "baseColorFactor" : [
                    0.7468810677528381,
                    0.306103378534317,
                    0.09327226877212524,
                    1
                ],
                "metallicFactor" : 0.3113636076450348,
                "roughnessFactor" : 0.3100000023841858
            }
        },
        {
            "doubleSided" : true,
            "name" : "body_mat",
            "pbrMetallicRoughness" : {
                "baseColorTexture" : {
                    "index" : 0
                },
                "metallicFactor" : 0.30000001192092896,
                "roughnessFactor" : 0.20000000298023224
            }
        },
        {
            "doubleSided" : true,
            "name" : "down_mat",
            "pbrMetallicRoughness" : {
                "baseColorFactor" : [
                    0.7072736620903015,
                    0.7072736620903015,
                    0.7072736620903015,
                    1
                ],
                "metallicFactor" : 0.8045454621315002,
                "roughnessFactor" : 0.009999999776482582
            }
        }
    ],
    "meshes" : [
        {
            "name" : "Plane.002",
            "primitives" : [
                {
                    "attributes" : {
                        "POSITION" : 0,
                        "NORMAL" : 1,
                        "TEXCOORD_0" : 2
                    },
                    "indices" : 3,
                    "material" : 0
                }
            ]
        },
        {
            "name" : "Cube.001",
            "primitives" : [
                {
                    "attributes" : {
                        "POSITION" : 4,
                        "NORMAL" : 5,
                        "TEXCOORD_0" : 6
                    },
                    "indices" : 7,
                    "material" : 0
                }
            ]
        },
        {
            "name" : "Cube",
            "primitives" : [
                {
                    "attributes" : {
                        "POSITION" : 8,
                        "NORMAL" : 9,
                        "TEXCOORD_0" : 10
                    },
                    "indices" : 11,
                    "material" : 1
                },
                {
                    "attributes" : {
                        "POSITION" : 12,
                        "NORMAL" : 13,
                        "TEXCOORD_0" : 14
                    },
                    "indices" : 15,
                    "material" : 0
                },
                {
                    "attributes" : {
                        "POSITION" : 16,
                        "NORMAL" : 17,
                        "TEXCOORD_0" : 18
                    },
                    "indices" : 19,
                    "material" : 2
                }
            ]
        }
    ],
    "textures" : [
        {
            "sampler" : 0,
            "source" : 0
        }
    ],
    "images" : [
        {
            "bufferView" : 12,
            "mimeType" : "image/png",
            "name" : "re_label_wrap"
        }
    ],
    "accessors" : [
        {
            "bufferView" : 0,
            "componentType" : 5126,
            "count" : 719,
            "max" : [
                0.5343223214149475,
                0.11296238750219345,
                0.41642823815345764
            ],
            "min" : [
                -0.4345596730709076,
                -3.725290298461914e-09,
                -0.6975919008255005
            ],
            "type" : "VEC3"
        },
        {
            "bufferView" : 1,
            "componentType" : 5126,
            "count" : 719,
            "type" : "VEC3"
        },
        {
            "bufferView" : 2,
            "componentType" : 5126,
            "count" : 719,
            "type" : "VEC2"
        },
        {
            "bufferView" : 3,
            "componentType" : 5123,
            "count" : 2556,
            "type" : "SCALAR"
        },
        {
            "bufferView" : 4,
            "componentType" : 5126,
            "count" : 2281,
            "max" : [
                0.6133928894996643,
                -0.004377883858978748,
                0.6133929491043091
            ],
            "min" : [
                -0.6133929491043091,
                -0.06560621410608292,
                -0.6133929491043091
            ],
            "type" : "VEC3"
        },
        {
            "bufferView" : 5,
            "componentType" : 5126,
            "count" : 2281,
            "type" : "VEC3"
        },
        {
            "bufferView" : 6,
            "componentType" : 5126,
            "count" : 2281,
            "type" : "VEC2"
        },
        {
            "bufferView" : 7,
            "componentType" : 5123,
            "count" : 9996,
            "type" : "SCALAR"
        },
        {
            "bufferView" : 8,
            "componentType" : 5126,
            "count" : 2550,
            "max" : [
                0.7387567162513733,
                4.12158727645874,
                0.7387567758560181
            ],
            "min" : [
                -0.7387567162513733,
                0.1383555680513382,
                -0.7387566566467285
            ],
            "type" : "VEC3"
        },
        {
            "bufferView" : 9,
            "componentType" : 5126,
            "count" : 2550,
            "type" : "VEC3"
        },
        {
            "bufferView" : 10,
            "componentType" : 5126,
            "count" : 2550,
            "type" : "VEC2"
        },
        {
            "bufferView" : 11,
            "componentType" : 5123,
            "count" : 13056,
            "type" : "SCALAR"
        },
        {
            "bufferView" : 13,
            "componentType" : 5126,
            "count" : 3563,
            "max" : [
                0.6759158372879028,
                4.185736656188965,
                0.6759158372879028
            ],
            "min" : [
                -0.6759158372879028,
                4.013951778411865,
                -0.6759157776832581
            ],
            "type" : "VEC3"
        },
        {
            "bufferView" : 14,
            "componentType" : 5126,
            "count" : 3563,
            "type" : "VEC3"
        },
        {
            "bufferView" : 15,
            "componentType" : 5126,
            "count" : 3563,
            "type" : "VEC2"
        },
        {
            "bufferView" : 16,
            "componentType" : 5123,
            "count" : 18432,
            "type" : "SCALAR"
        },
        {
            "bufferView" : 17,
            "componentType" : 5126,
            "count" : 3516,
            "max" : [
                0.7039619088172913,
                0.13835559785366058,
                0.703961968421936
            ],
            "min" : [
                -0.703961968421936,
                0.004728143569082022,
                -0.7039619088172913
            ],
            "type" : "VEC3"
        },
        {
            "bufferView" : 18,
            "componentType" : 5126,
            "count" : 3516,
            "type" : "VEC3"
        },
        {
            "bufferView" : 19,
            "componentType" : 5126,
            "count" : 3516,
            "type" : "VEC2"
        },
        {
            "bufferView" : 20,
            "componentType" : 5123,
            "count" : 19200,
            "type" : "SCALAR"
        }
    ],
    "bufferViews" : [
        {
            "buffer" : 0,
            "byteLength" : 8628,
            "byteOffset" : 0
        },
        {
            "buffer" : 0,
            "byteLength" : 8628,
            "byteOffset" : 8628
        },
        {
            "buffer" : 0,
            "byteLength" : 5752,
            "byteOffset" : 17256
        },
        {
            "buffer" : 0,
            "byteLength" : 5112,
            "byteOffset" : 23008
        },
        {
            "buffer" : 0,
            "byteLength" : 27372,
            "byteOffset" : 28120
        },
        {
            "buffer" : 0,
            "byteLength" : 27372,
            "byteOffset" : 55492
        },
        {
            "buffer" : 0,
            "byteLength" : 18248,
            "byteOffset" : 82864
        },
        {
            "buffer" : 0,
            "byteLength" : 19992,
            "byteOffset" : 101112
        },
        {
            "buffer" : 0,
            "byteLength" : 30600,
            "byteOffset" : 121104
        },
        {
            "buffer" : 0,
            "byteLength" : 30600,
            "byteOffset" : 151704
        },
        {
            "buffer" : 0,
            "byteLength" : 20400,
            "byteOffset" : 182304
        },
        {
            "buffer" : 0,
            "byteLength" : 26112,
            "byteOffset" : 202704
        },
        {
            "buffer" : 0,
            "byteLength" : 296531,
            "byteOffset" : 228816
        },
        {
            "buffer" : 0,
            "byteLength" : 42756,
            "byteOffset" : 525348
        },
        {
            "buffer" : 0,
            "byteLength" : 42756,
            "byteOffset" : 568104
        },
        {
            "buffer" : 0,
            "byteLength" : 28504,
            "byteOffset" : 610860
        },
        {
            "buffer" : 0,
            "byteLength" : 36864,
            "byteOffset" : 639364
        },
        {
            "buffer" : 0,
            "byteLength" : 42192,
            "byteOffset" : 676228
        },
        {
            "buffer" : 0,
            "byteLength" : 42192,
            "byteOffset" : 718420
        },
        {
            "buffer" : 0,
            "byteLength" : 28128,
            "byteOffset" : 760612
        },
        {
            "buffer" : 0,
            "byteLength" : 38400,
            "byteOffset" : 788740
        }
    ],
    "samplers" : [
        {
            "magFilter" : 9729,
            "minFilter" : 9987
        }
    ],
    "buffers" : [
        {
            "byteLength" : 827140,
            "uri" : "data:application/octet-stream;base64,"
        }
    ]
}
